<svg xmlns="http://www.w3.org/2000/svg" version="1.1" viewBox="0 0 91 87" preserveAspectRatio="none" class="brikflake">
  <polygon fill="#AABA00" points="29,0 16,8 16,23 29,31 42,23 42,8"></polygon>
  <polygon fill="#AABA00" points="13,28 0,36 0,51 13,59 26,51 26,36"></polygon>
  <polygon fill="#AABA00" points="29,56 16,64 16,79 29,87 42,79 42,64"></polygon>
  <polygon fill="#AABA00" points="61,56 48,64 48,79 61,87 74,79 74,64"></polygon>
  <polygon fill="#AABA00" points="77,28 64,36 64,51 77,59 90,51 90,36"></polygon>
  <polygon fill="#AABA00" points="61,0 48,8 48,23 61,31 74,23 74,8"></polygon>
</svg>
